<svg xmlns="http://www.w3.org/2000/svg" viewBox="0 0 30 20">
  <rect width="30" height="20" fill="#DE2910"/>
  <polygon points="5,2 6,4.6 9,4.6 6.5,6.2 7.6,9 5,7.4 2.4,9 3.5,6.2 1,4.6 4,4.6" fill="#FFDE00"/>
  <polygon points="10.5,2.5 11,3.5 12.1,3.5 11.2,4.2 11.6,5.3 10.5,4.7 9.4,5.3 9.8,4.2 8.9,3.5 10,3.5" fill="#FFDE00"/>
  <polygon points="12.5,4.5 13,5.5 14.1,5.5 13.2,6.2 13.6,7.3 12.5,6.7 11.4,7.3 11.8,6.2 10.9,5.5 12,5.5" fill="#FFDE00"/>
  <polygon points="12.5,7.5 13,8.5 14.1,8.5 13.2,9.2 13.6,10.3 12.5,9.7 11.4,10.3 11.8,9.2 10.9,8.5 12,8.5" fill="#FFDE00"/>
  <polygon points="10.5,9.5 11,10.5 12.1,10.5 11.2,11.2 11.6,12.3 10.5,11.7 9.4,12.3 9.8,11.2 8.9,10.5 10,10.5" fill="#FFDE00"/>
</svg>

