<svg xmlns="http://www.w3.org/2000/svg" viewBox="0 0 512 512" width="512" height="512">
  <defs>
    <linearGradient id="grad1" x1="0%" y1="0%" x2="100%" y2="100%">
      <stop offset="0%" style="stop-color:#4a90e2;stop-opacity:1" />
      <stop offset="100%" style="stop-color:#9013fe;stop-opacity:1" />
    </linearGradient>
  </defs>
  <rect width="512" height="512" rx="100" fill="url(#grad1)" />
  <path d="M160 140 H360 A20 20 0 0 1 380 160 V180 A20 20 0 0 1 360 200 H220 V240 H340 A20 20 0 0 1 360 260 V280 A20 20 0 0 1 340 300 H220 V380 A20 20 0 0 1 200 400 H180 A20 20 0 0 1 160 380 V140 Z" fill="white" />
  <path d="M380 140 L420 100" stroke="white" stroke-width="30" stroke-linecap="round" />
  <path d="M420 140 L460 100" stroke="white" stroke-width="30" stroke-linecap="round" />
</svg>
